PathFileType	4	(X/Y/Z)	C:\Users\Tech_3\Documents\Nikita\PSYC9080\walk1.trc
DataRate	CameraRate	NumFrames	NumMarkers	Units	OrigDataRate	OrigDataStartFrame	OrigNumFrames
120.00	120.00	      10	16	mm	120.00	1891	      2520
Frame#	Time	R_1M			R_5M			R_CALC			R_MAL			R_KNEE			R_GT			R_ASIS			R_PSIS			L_1M			L_5M			L_CALC			L_MAL			L_KNEE			L_GT			L_ASIS			L_PSIS			
		X1	Y1	Z1	X2	Y2	Z2	X3	Y3	Z3	X4	Y4	Z4	X5	Y5	Z5	X6	Y6	Z6	X7	Y7	Z7	X8	Y8	Z8	X9	Y9	Z9	X10	Y10	Z10	X11	Y11	Z11	X12	Y12	Z12	X13	Y13	Z13	X14	Y14	Z14	X15	Y15	Z15	X16	Y16	Z16	

1891	15.750	270.12411	57.81112	589.83173	163.32368	50.92352	566.13202	228.08582	35.12656	387.74237	171.05316	115.80078	471.20367	148.68689	486.59460	522.97845	73.58965	863.02466	488.18088	175.95247	918.39050	565.38177	195.79283	984.35730	329.61301	310.83386	102.51926	296.25787	403.60123	113.51847	275.56531	321.59418	258.29089	162.22560	388.44562	242.67633	256.49854	434.46970	511.64487	555.76050	452.49997	831.97339	467.98083	368.76746	927.01294	542.34326	270.21173	976.91791	317.56143	
1892	15.758	269.80820	57.47962	581.75909	163.45779	50.79346	557.36993	228.42764	35.60497	378.81668	171.35736	116.49142	462.97672	148.46930	486.87057	517.20734	73.12193	863.95929	485.65732	174.78316	919.67041	563.92706	196.64323	985.66510	328.50092	313.25381	100.39544	314.92865	405.46259	112.02122	294.15662	321.52173	250.36595	174.44106	388.71640	239.59625	269.80774	433.72934	515.73138	562.49896	452.46817	834.55164	469.19354	367.70554	928.56274	542.11182	271.08765	978.29596	316.83484	
1893	15.767	269.89828	57.43718	573.35590	163.59932	50.89428	548.74225	227.81180	36.72661	370.20474	171.65736	117.11380	454.56900	148.53380	487.05930	511.57941	72.62868	864.78412	483.09293	173.17532	920.50104	562.36060	197.90930	986.83459	327.33511	315.45782	98.00141	334.72586	407.22650	110.06992	312.69009	321.44583	241.47934	187.14577	388.77841	235.82234	282.76971	432.76984	519.83240	568.90033	452.73807	836.91278	470.19669	366.60345	930.36011	542.03082	272.00836	979.33582	315.95966	
1894	15.775	269.89355	57.03320	564.80334	163.51628	51.03775	539.98145	230.36929	36.68772	362.25314	171.94658	117.79813	446.37683	148.30592	487.64880	505.86533	72.52573	865.24976	480.76785	171.73679	921.43915	560.87268	198.79622	987.60352	325.92148	317.79883	95.23037	354.77982	409.57098	108.19663	332.33517	321.84412	231.64069	200.49272	389.40082	231.33398	296.63300	432.47134	524.11383	574.57135	452.39917	839.22186	472.00455	365.69193	931.99249	542.43805	273.07462	980.19354	314.89636	
1895	15.783	269.90515	56.67301	555.94940	163.61148	51.04237	531.16260	229.93047	38.24562	353.12057	172.72659	118.33212	438.34302	148.89722	487.34476	500.39636	72.47115	865.71173	478.48572	170.45206	922.19043	559.45306	199.87666	988.24567	324.40762	320.11713	92.56406	375.26611	411.59369	105.75964	351.71652	321.28333	221.06110	214.33173	389.39417	226.23592	310.69006	431.41681	527.88470	580.14594	452.75851	841.47827	473.33780	364.22702	933.16187	542.25055	274.37128	980.99298	313.89795	
1896	15.792	270.49088	56.98402	547.98895	163.98463	50.87160	522.54742	230.35316	38.62084	344.51923	173.19119	118.95013	430.15698	149.22226	487.25742	494.76147	72.43304	865.80725	476.02606	168.20393	923.24963	558.95990	201.21213	988.82452	322.87036	322.59332	89.98867	396.68018	413.37866	103.15176	372.19202	322.68445	209.61360	229.44064	389.95590	220.86317	325.07391	429.81311	531.40723	584.85187	452.68866	843.11133	474.20856	362.52286	934.46594	541.79553	275.73526	981.74243	312.89447	
1897	15.800	270.05023	56.30815	539.21381	164.20500	50.80183	513.88849	231.29247	39.52004	335.87515	173.80887	119.31050	422.11453	149.60258	487.10562	489.06580	72.34165	865.78424	473.62723	167.17921	923.49567	556.92029	202.27783	989.34308	321.30853	324.47986	87.31644	418.26242	415.32220	100.31644	392.55219	323.07904	197.73412	245.16818	390.12079	214.90042	339.78934	429.30832	534.85779	589.09955	452.73022	844.80658	473.79910	361.31537	935.71826	541.50092	276.93884	982.36969	311.79449	
1898	15.808	269.96671	56.10872	530.94495	163.93689	50.94382	504.93469	229.76096	40.90716	326.50977	173.61522	120.08485	413.53366	149.68674	486.96982	483.31482	72.16151	865.72620	471.09369	166.24065	922.73541	553.33014	203.20583	989.59515	319.64117	327.61450	84.79713	441.36496	417.69067	97.68314	413.42142	322.85938	185.56473	261.39325	390.55493	208.49158	355.13721	427.33197	537.68707	592.75940	452.63437	846.48828	477.02396	360.53580	936.61414	541.09222	277.98596	982.87775	310.63339	
1899	15.817	270.28922	55.68103	522.22137	164.02283	50.96494	496.14575	229.35063	42.00116	317.80469	174.53619	120.46819	405.50882	149.53304	486.89310	477.53415	71.97115	865.49512	468.41519	165.28987	922.39850	551.55225	204.04677	989.88593	318.07843	330.74545	81.58512	461.69794	419.89111	94.73920	433.96228	323.01093	173.08415	278.53894	390.95294	201.88107	370.44116	425.42538	540.51599	596.30719	452.58621	848.16095	477.44986	359.33295	937.62866	540.50946	279.04532	983.50543	310.17120	
1900	15.825	269.75986	55.40489	513.03235	164.25217	50.66190	487.40735	231.14508	42.44654	309.51364	174.71902	120.94050	397.19547	149.86617	486.62164	471.93716	71.99686	865.14063	465.80734	164.99939	922.47577	548.56219	205.14552	989.99463	316.75272	332.61206	80.09656	484.90512	422.47986	92.21243	455.09256	322.96835	160.62105	296.17255	391.85370	195.18407	386.30521	423.69815	542.89459	599.22003	452.56183	849.46118	478.20737	358.80353	938.33582	539.90533	279.56317	983.57599	308.75009	
